<?xml version="1.0" encoding="UTF-8"?><svg width="420mm" height="297mm" baseProfile="tiny" version="1.2" viewBox="0 0 4200 2970" xmlns="http://www.w3.org/2000/svg"><title>Owlput</title><g fill="none" stroke="#000" stroke-linecap="round" stroke-width="30"><g transform="translate(2100 1485)"><path d="m-992.55-518.88c-246.36 471.24-127.4 1050.7 284.68 1386.8 412.08 336.08 1003.7 336.08 1415.7 0 412.08-336.08 531.04-915.58 284.68-1386.8"/></g><g transform="translate(2100 1485)"><path d="m-240-52.491 1218.9-952.33"/></g><g transform="translate(2100 1485)"><path d="m1121.5-1032.5c-49.23-14.12-102.24-3.81-142.6 27.72"/></g><g transform="translate(2100 1485)"><path d="m1121.5-1032.5 478.47 137.2"/></g><g transform="translate(2100 1485)"><path d="m1600-895.34-1360 842.85"/></g><g transform="translate(2100 1485)"><path d="m240-52.491-1218.9-952.33"/></g><g transform="translate(2100 1485)"><path d="m-978.93-1004.8c-40.363-31.53-93.373-41.84-142.6-27.72"/></g><g transform="translate(2100 1485)"><path d="m-1121.5-1032.5-478.47 137.2"/></g><g transform="translate(2100 1485)"><path d="m-1600-895.34 1360 842.85"/></g><g transform="translate(2100 1485)"><path d="m-240-52.491 240 852.49"/></g><g transform="translate(2100 1485)"><path d="M240,-52.4914 L0,800"/></g><g transform="translate(2100 1485)"><path d="m-563.17-680 563.17-440"/></g><g transform="translate(2100 1485)"><path d="m0-1120 563.17 440"/></g><g transform="translate(2100 1485)"><path d="m-1126.4 763.28 150.26 222.77"/></g><g transform="translate(2100 1485)"><path d="m-976.18 986.05 518.73 36.269"/></g><g transform="translate(2100 1485)"><path d="m1126.4 763.28-150.26 222.77"/></g><g transform="translate(2100 1485)"><path d="m976.18 986.05-518.73 36.269"/></g><g transform="translate(2100 1485)"><path d="m753.46-828.67c-427.21-388.44-1079.7-388.44-1506.9 0"/></g><g transform="translate(2100 1485)"><path d="m1006.7 490.96 757.95-161.11"/></g><g transform="translate(2100 1485)"><path d="m2042.5-240-277.93 569.85"/></g><g transform="translate(2100 1485)"><path d="m1119.7 24.612 922.81-264.61"/></g><g transform="translate(2100 1485)"><path d="m-2042.5-240 922.81 264.61"/></g><g transform="translate(2100 1485)"><path d="m-2042.5-240 277.93 569.85"/></g><g transform="translate(2100 1485)"><path d="m-1764.6 329.85 757.95 161.11"/></g><g transform="translate(2100 1485)"><path d="m-1529.8 379.75 205.36 355.7"/></g><g transform="translate(2100 1485)"><path d="m-1324.5 735.45 554.55 77.937"/></g><g transform="translate(2100 1485)"><path d="m1529.8 379.75-205.36 355.7"/></g><g transform="translate(2100 1485)"><path d="m1324.5 735.45-554.55 77.937"/></g></g></svg>